<svg width="20" height="21" viewBox="0 0 20 21" fill="none" xmlns="http://www.w3.org/2000/svg">
<g clip-path="url(#clip0_1_31)">
<path d="M10 19.25C7.67936 19.25 5.45376 18.3281 3.81282 16.6872C2.17187 15.0462 1.25 12.8206 1.25 10.5C1.25 8.17936 2.17187 5.95376 3.81282 4.31282C5.45376 2.67187 7.67936 1.75 10 1.75C12.3206 1.75 14.5462 2.67187 16.1872 4.31282C17.8281 5.95376 18.75 8.17936 18.75 10.5C18.75 12.8206 17.8281 15.0462 16.1872 16.6872C14.5462 18.3281 12.3206 19.25 10 19.25ZM10 20.5C12.6522 20.5 15.1957 19.4464 17.0711 17.5711C18.9464 15.6957 20 13.1522 20 10.5C20 7.84784 18.9464 5.3043 17.0711 3.42893C15.1957 1.55357 12.6522 0.5 10 0.5C7.34784 0.5 4.8043 1.55357 2.92893 3.42893C1.05357 5.3043 0 7.84784 0 10.5C0 13.1522 1.05357 15.6957 2.92893 17.5711C4.8043 19.4464 7.34784 20.5 10 20.5Z" fill="#333333"/>
<path d="M10 5.5C10.1658 5.5 10.3247 5.56585 10.4419 5.68306C10.5592 5.80027 10.625 5.95924 10.625 6.125V9.875H14.375C14.5408 9.875 14.6997 9.94085 14.8169 10.0581C14.9342 10.1753 15 10.3342 15 10.5C15 10.6658 14.9342 10.8247 14.8169 10.9419C14.6997 11.0592 14.5408 11.125 14.375 11.125H10.625V14.875C10.625 15.0408 10.5592 15.1997 10.4419 15.3169C10.3247 15.4342 10.1658 15.5 10 15.5C9.83424 15.5 9.67527 15.4342 9.55806 15.3169C9.44085 15.1997 9.375 15.0408 9.375 14.875V11.125H5.625C5.45924 11.125 5.30027 11.0592 5.18306 10.9419C5.06585 10.8247 5 10.6658 5 10.5C5 10.3342 5.06585 10.1753 5.18306 10.0581C5.30027 9.94085 5.45924 9.875 5.625 9.875H9.375V6.125C9.375 5.95924 9.44085 5.80027 9.55806 5.68306C9.67527 5.56585 9.83424 5.5 10 5.5Z" fill="#333333"/>
</g>
<defs>
<clipPath id="clip0_1_31">
<rect width="20" height="20" fill="white" transform="translate(0 0.5)"/>
</clipPath>
</defs>
</svg>
